<svg width="64" height="64" viewBox="0 0 64 64" fill="none" xmlns="http://www.w3.org/2000/svg">
<path d="M31.9997 0.333328C14.5197 0.333328 0.333008 14.52 0.333008 32C0.333008 49.48 14.5197 63.6667 31.9997 63.6667C49.4797 63.6667 63.6663 49.48 63.6663 32C63.6663 14.52 49.4797 0.333328 31.9997 0.333328ZM28.833 41.5C28.833 43.2417 27.408 44.6667 25.6663 44.6667C23.9247 44.6667 22.4997 43.2417 22.4997 41.5V22.5C22.4997 20.7583 23.9247 19.3333 25.6663 19.3333C27.408 19.3333 28.833 20.7583 28.833 22.5V41.5ZM44.7297 34.47L37.1297 40.55C35.0713 42.1967 31.9997 40.74 31.9997 38.08V25.92C31.9997 23.26 35.0713 21.8033 37.1297 23.45L44.7297 29.53C46.313 30.7967 46.313 33.2033 44.7297 34.47Z" fill="white"/>
</svg>
