<svg width="64" height="64" viewBox="0 0 64 64" fill="none" xmlns="http://www.w3.org/2000/svg">
<path d="M9.34875 9.3484C-3.01148 21.7086 -3.01148 41.7716 9.34875 54.1318C21.709 66.4921 41.772 66.4921 54.1322 54.1318C66.4924 41.7716 66.4924 21.7086 54.1322 9.3484C41.772 -3.01183 21.709 -3.01183 9.34875 9.3484ZM42.9363 25.0226L36.2188 31.7401L42.9363 38.4576C44.1679 39.6892 44.1679 41.7044 42.9363 42.936C41.7048 44.1675 39.6895 44.1675 38.458 42.936L31.7405 36.2185L25.0229 42.936C23.7914 44.1675 21.7762 44.1675 20.5446 42.936C19.3131 41.7044 19.3131 39.6892 20.5446 38.4576L27.2621 31.7401L20.5446 25.0226C19.3131 23.7911 19.3131 21.7758 20.5446 20.5443C21.7762 19.3127 23.7914 19.3127 25.0229 20.5443L31.7405 27.2618L38.458 20.5443C39.6895 19.3127 41.7048 19.3127 42.9363 20.5443C44.1679 21.7758 44.1679 23.7911 42.9363 25.0226Z" fill="#FF3B30" fill-opacity="0.85"/>
</svg>
