<svg width="64" height="64" viewBox="0 0 64 64" fill="none" xmlns="http://www.w3.org/2000/svg">
<path d="M31.9997 0.333374C14.5197 0.333374 0.333008 14.52 0.333008 32C0.333008 49.48 14.5197 63.6667 31.9997 63.6667C49.4797 63.6667 63.6663 49.48 63.6663 32C63.6663 14.52 49.4797 0.333374 31.9997 0.333374ZM23.418 45.585L12.0497 34.2167C10.8147 32.9817 10.8147 30.9867 12.0497 29.7517C13.2847 28.5167 15.2797 28.5167 16.5147 29.7517L25.6663 38.8717L47.453 17.085C48.688 15.85 50.683 15.85 51.918 17.085C53.153 18.32 53.153 20.315 51.918 21.55L27.883 45.585C26.6797 46.82 24.653 46.82 23.418 45.585Z" fill="#28CD41" fill-opacity="0.85"/>
</svg>
