<svg width="40" height="46" viewBox="0 0 40 46" fill="none" xmlns="http://www.w3.org/2000/svg">
<path d="M33.4 23.8001C32.84 23.4801 32.26 23.2201 31.68 23.0001C32.26 22.7801 32.84 22.5201 33.4 22.2001C37.24 19.9801 39.38 15.9601 39.4 11.8201C37.58 10.7801 35.5 10.2201 33.38 10.2201C31.34 10.2201 29.28 10.7401 27.4 11.8201C26.84 12.1401 26.32 12.5201 25.84 12.9001C25.94 12.2801 26 11.6401 26 11.0001C26 6.56012 23.58 2.70012 20 0.620117C16.42 2.70012 14 6.56012 14 11.0001C14 11.6401 14.06 12.2801 14.16 12.9001C13.68 12.5001 13.16 12.1201 12.6 11.8001C10.72 10.7201 8.65998 10.2001 6.61998 10.2001C4.51998 10.2001 2.41998 10.7601 0.599976 11.8001C0.599976 15.9401 2.73998 19.9601 6.59998 22.1801C7.15998 22.5001 7.73998 22.7601 8.31998 22.9801C7.73998 23.2001 7.15998 23.4601 6.59998 23.7801C2.75998 26.0001 0.619976 30.0201 0.599976 34.1601C2.41998 35.2001 4.49998 35.7601 6.61998 35.7601C8.65998 35.7601 10.72 35.2401 12.6 34.1601C13.16 33.8401 13.68 33.4601 14.16 33.0801C14.06 33.7201 14 34.3601 14 35.0001C14 39.4401 16.42 43.3001 20 45.3801C23.58 43.3001 26 39.4401 26 35.0001C26 34.3601 25.94 33.7201 25.84 33.1001C26.32 33.5001 26.84 33.8601 27.4 34.1801C29.28 35.2601 31.34 35.7801 33.38 35.7801C35.48 35.7801 37.58 35.2201 39.4 34.1801C39.38 30.0401 37.24 26.0201 33.4 23.8001ZM28.32 16.0401C28.74 15.7001 29.08 15.4601 29.4 15.3001C30.62 14.6001 32 14.2201 33.4 14.2201C33.94 14.2201 34.46 14.2801 34.98 14.3801C34.36 16.2001 33.1 17.7601 31.42 18.7401C31.08 18.9401 30.7 19.1001 30.26 19.2801L27.5 20.3201C27.16 19.4001 26.68 18.5801 26.06 17.8401L28.32 16.0401ZM20 5.74012C21.26 7.18012 22 9.06012 22 11.0001C22 11.3801 21.96 11.8201 21.9 12.2601L21.44 15.1401C20.96 15.0601 20.48 15.0001 20 15.0001C19.52 15.0001 19.04 15.0601 18.58 15.1401L18.12 12.2601C18.04 11.8201 18 11.3801 18 11.0001C18 9.04012 18.74 7.18012 20 5.74012ZM5.01998 14.3601C5.53998 14.2401 6.07998 14.2001 6.61998 14.2001C7.99998 14.2001 9.37998 14.5601 10.6 15.2801C10.9 15.4601 11.24 15.6801 11.58 15.9801L13.88 17.9001C13.28 18.6201 12.82 19.4201 12.48 20.3001L9.71998 19.2601C9.29998 19.0801 8.91998 18.9001 8.59998 18.7201C6.85998 17.7201 5.61998 16.1801 5.01998 14.3601ZM11.68 29.9401C11.26 30.2801 10.92 30.5201 10.6 30.6801C9.37998 31.3801 7.99998 31.7601 6.59998 31.7601C6.05998 31.7601 5.53998 31.7001 5.01998 31.6001C5.63998 29.7801 6.89998 28.2201 8.57998 27.2401C8.91998 27.0401 9.29998 26.8801 9.73997 26.7001L12.5 25.6601C12.82 26.5801 13.32 27.4201 13.94 28.1401L11.68 29.9401ZM20 40.2601C18.74 38.8201 18 36.9401 18 35.0001C18 34.6001 18.04 34.1801 18.12 33.7001L18.56 30.8601C19.02 30.9401 19.5 31.0001 20 31.0001C20.48 31.0001 20.96 30.9401 21.42 30.8601L21.88 33.7401C21.96 34.1801 22 34.6201 22 35.0001C22 36.9601 21.26 38.8201 20 40.2601ZM33.38 31.7801C32 31.7801 30.62 31.4201 29.4 30.7001C29.04 30.5001 28.72 30.2601 28.42 30.0201L26.12 28.1001C26.72 27.3801 27.2 26.5801 27.52 25.6801L30.28 26.7201C30.72 26.8801 31.1 27.0601 31.42 27.2401C33.12 28.2201 34.36 29.7801 34.98 31.6001C34.44 31.7401 33.9 31.7801 33.38 31.7801Z" fill="white"/>
</svg>
