<svg width="40" height="32" viewBox="0 0 40 32" fill="none" xmlns="http://www.w3.org/2000/svg">
<path d="M35.212 5.99C35.06 5.394 34.628 4.944 34.134 4.806C33.26 4.56 29 4 20 4C11 4 6.744 4.56 5.862 4.806C5.374 4.942 4.942 5.392 4.788 5.99C4.57 6.838 4 10.392 4 16C4 21.608 4.57 25.16 4.788 26.012C4.94 26.606 5.372 27.056 5.864 27.192C6.744 27.44 11 28 20 28C29 28 33.258 27.44 34.138 27.194C34.626 27.058 35.058 26.608 35.212 26.01C35.43 25.162 36 21.6 36 16C36 10.4 35.43 6.84 35.212 5.99ZM39.086 4.996C40 8.56 40 16 40 16C40 16 40 23.44 39.086 27.004C38.578 28.974 37.092 30.524 35.21 31.048C31.792 32 20 32 20 32C20 32 8.214 32 4.79 31.048C2.9 30.516 1.416 28.968 0.914 27.004C5.96046e-08 23.44 0 16 0 16C0 16 5.96046e-08 8.56 0.914 4.996C1.422 3.026 2.908 1.476 4.79 0.952C8.214 -3.57628e-07 20 0 20 0C20 0 31.792 -3.57628e-07 35.21 0.952C37.1 1.484 38.584 3.032 39.086 4.996ZM16 23V9L28 16L16 23Z" fill="white"/>
</svg>
