<svg width="48" height="48" viewBox="0 0 48 48" fill="none" xmlns="http://www.w3.org/2000/svg">
<path d="M24 4C12.96 4 4 12.96 4 24C4 35.04 12.96 44 24 44C35.04 44 44 35.04 44 24C44 12.96 35.04 4 24 4ZM24 40C15.16 40 8 32.84 8 24C8 15.16 15.16 8 24 8C32.84 8 40 15.16 40 24C40 32.84 32.84 40 24 40Z" fill="white"/>
<path d="M14.2002 20.36C14.7202 21.48 14.9802 22.68 15.0002 23.96C15.0202 25.22 14.7402 26.46 14.2002 27.68L16.9402 28.92C17.6802 27.3 18.0402 25.62 18.0202 23.92C18.0002 22.24 17.6402 20.62 16.9402 19.12L14.2002 20.36Z" fill="white"/>
<path d="M26.6602 14.66C28.2202 17.8 29.0202 20.94 29.0202 23.94C29.0202 26.96 28.2202 30.12 26.6602 33.32L29.3602 34.64C31.1202 31.02 32.0202 27.42 32.0202 23.94C32.0202 20.46 31.1202 16.88 29.3602 13.32L26.6602 14.66Z" fill="white"/>
<path d="M20.4004 17.44C21.4604 19.58 22.0004 21.86 22.0004 24.24C22.0004 26.58 21.4804 28.7 20.4404 30.54L23.0404 32.02C24.3404 29.72 25.0004 27.12 25.0004 24.24C25.0004 21.4 24.3604 18.66 23.0804 16.1L20.4004 17.44Z" fill="white"/>
</svg>
