<svg width="40" height="40" viewBox="0 0 40 40" fill="none" xmlns="http://www.w3.org/2000/svg">
<path d="M29.25 2.266L26.25 5.266C24.273 4.42785 22.1473 3.99726 20 4C11.16 4 4 11.16 4 20C4 28.84 11.16 36 20 36C28.84 36 36 28.84 36 20C36.0027 17.8527 35.5721 15.727 34.734 13.75L37.734 10.75C39.2268 13.6045 40.0044 16.7787 40 20C40 31.04 31.04 40 20 40C8.96 40 0 31.04 0 20C0 8.96 8.96 0 20 0C23.336 0 26.482 0.82 29.25 2.266ZM32.728 4.444L35.556 7.272L20 22.828L17.172 20L32.728 4.444Z" fill="white"/>
</svg>
