<svg width="388" height="388" viewBox="0 0 388 388" fill="none" xmlns="http://www.w3.org/2000/svg">
<path d="M141.617 52.383C219.83 23.4526 306.687 63.4041 335.617 141.617C364.547 219.83 324.596 306.687 246.383 335.617C168.17 364.547 81.3135 324.596 52.3831 246.383C23.4528 168.17 63.4042 81.3133 141.617 52.383ZM245.204 332.429C321.656 304.15 360.708 219.248 332.429 142.796C304.15 66.3438 219.249 27.2917 142.796 55.5708C66.344 83.8499 27.2919 168.751 55.571 245.204C83.8501 321.656 168.752 360.708 245.204 332.429Z" fill="#FFFEFE" fill-opacity="0.2"/>
<path d="M177.617 45.5766C177.515 44.66 178.177 43.834 179.095 43.7429C210.824 40.5952 242.752 47.5723 270.293 63.6972C298.314 80.1036 320.3 105.106 332.988 134.995C345.677 164.884 348.393 198.067 340.733 229.621C333.073 261.175 315.445 289.42 290.464 310.164C265.484 330.908 234.481 343.047 202.057 344.779C169.632 346.512 137.513 337.746 110.464 319.782C83.4152 301.818 62.8778 275.613 51.8987 245.054C41.108 215.02 40.1156 182.354 49.0392 151.743C49.2973 150.857 50.2308 150.359 51.1132 150.627V150.627C51.9956 150.894 52.4926 151.827 52.2348 152.713C43.5196 182.636 44.4935 214.567 55.0414 243.925C65.7776 273.808 85.8608 299.433 112.311 317C138.762 334.567 170.171 343.139 201.879 341.445C233.586 339.751 263.903 327.88 288.331 307.595C312.759 287.309 329.997 259.69 337.488 228.833C344.979 197.977 342.323 165.528 329.915 136.3C317.506 107.072 296.007 82.6225 268.605 66.5789C241.685 50.8168 210.477 43.9932 179.461 47.0623C178.543 47.1531 177.718 46.4931 177.617 45.5766V45.5766Z" fill="#FFFEFE"/>
<path d="M177.617 45.5766C177.515 44.66 178.177 43.834 179.095 43.7429C210.824 40.5952 242.752 47.5723 270.293 63.6972C298.314 80.1036 320.3 105.106 332.988 134.995C345.677 164.884 348.393 198.067 340.733 229.621C333.073 261.175 315.445 289.42 290.464 310.164C265.484 330.908 234.481 343.047 202.057 344.779C169.632 346.512 137.513 337.746 110.464 319.782C83.4152 301.818 62.8778 275.613 51.8987 245.054C41.108 215.02 40.1156 182.354 49.0392 151.743C49.2973 150.857 50.2308 150.359 51.1132 150.627V150.627C51.9956 150.894 52.4926 151.827 52.2348 152.713C43.5196 182.636 44.4935 214.567 55.0414 243.925C65.7776 273.808 85.8608 299.433 112.311 317C138.762 334.567 170.171 343.139 201.879 341.445C233.586 339.751 263.903 327.88 288.331 307.595C312.759 287.309 329.997 259.69 337.488 228.833C344.979 197.977 342.323 165.528 329.915 136.3C317.506 107.072 296.007 82.6225 268.605 66.5789C241.685 50.8168 210.477 43.9932 179.461 47.0623C178.543 47.1531 177.718 46.4931 177.617 45.5766V45.5766Z" fill="white"/>
<g filter="url(#filter0_d_791_1036)">
<path d="M301.543 258.689C304.92 260.726 306.022 265.128 303.804 268.389C289.247 289.799 268.646 306.472 244.552 316.234C218.248 326.891 189.197 328.735 161.756 321.49C134.315 314.244 109.962 298.3 92.3476 276.046C74.7329 253.792 64.8059 226.428 64.0548 198.057C63.3036 169.685 71.7688 141.835 88.1813 118.68C104.594 95.5256 128.069 78.3145 155.088 69.6272C182.108 60.9399 211.215 61.2443 238.046 70.4949C262.622 78.968 284.077 94.5283 299.747 115.137C302.134 118.277 301.266 122.731 298.002 124.943V124.943C294.737 127.156 290.314 126.288 287.906 123.165C273.984 105.105 255.047 91.4634 233.391 83.997C209.479 75.753 183.539 75.4816 159.46 83.2237C135.381 90.9658 114.46 106.304 99.8331 126.939C85.2064 147.574 77.6624 172.395 78.3318 197.679C79.0012 222.963 87.848 247.35 103.546 267.182C119.244 287.014 140.947 301.224 165.403 307.681C189.858 314.138 215.747 312.495 239.189 302.997C260.42 294.395 278.608 279.771 291.555 260.999C293.794 257.753 298.165 256.652 301.543 258.689V258.689Z" fill="#7CFE90"/>
</g>
<g filter="url(#filter1_d_791_1036)">
<path d="M301.095 132.717C304.514 130.751 308.898 131.922 310.675 135.442C319.413 152.755 324.219 171.817 324.711 191.262C325.203 210.708 321.367 229.989 313.516 247.721C311.919 251.327 307.6 252.717 304.086 250.927V250.927C300.572 249.137 299.196 244.844 300.769 241.227C307.555 225.621 310.866 208.693 310.434 191.624C310.002 174.554 305.839 157.815 298.273 142.572C296.519 139.04 297.676 134.683 301.095 132.717V132.717Z" fill="#F7FFFC" fill-opacity="0.94"/>
</g>
<rect x="138.596" y="194.584" width="113.342" height="1.76722" fill="#677681"/>
<path fill-rule="evenodd" clip-rule="evenodd" d="M122.442 121.758C162.662 81.5388 227.871 81.5388 268.09 121.758C308.31 161.978 308.31 227.187 268.09 267.407C227.871 307.626 162.662 307.626 122.442 267.407C82.2224 227.187 82.2224 161.978 122.442 121.758ZM273.551 251.745C301.307 213.83 298.056 160.308 263.799 126.05C227.596 89.8478 169.88 88.2723 131.805 121.323L136.085 134.625L121.666 131.517C88.9672 169.595 90.6564 227.038 126.734 263.115C164.583 300.965 225.949 300.965 263.799 263.115C263.866 263.048 263.933 262.981 263.999 262.914L259.113 249.045L273.551 251.745Z" fill="white" fill-opacity="0.4"/>
<path d="M167.009 216.606H169.241V218.43H167.009V216.606ZM169.241 221.694H167.009V219.822H169.241V221.694ZM165.473 221.694H162.353V223.062H165.473V224.814H161.945V226.278H165.473V228.15H161.345V229.614H165.473V232.494H167.009V229.614H171.905V228.15H167.009V226.278H171.137V224.814H167.009V223.062H170.657V219.822H172.337V218.43H170.657V215.238H167.009V213.246H165.473V215.238H162.353V216.606H165.473V218.43H161.249V219.822H165.473V221.694ZM154.721 213.294C153.785 216.798 152.225 220.23 150.377 222.462C150.665 222.918 151.145 223.878 151.265 224.286C151.889 223.494 152.465 222.63 153.017 221.67V235.11H154.601V218.526C155.249 216.99 155.849 215.358 156.305 213.726L154.721 213.294ZM160.481 221.934L160.313 221.958H158.369C159.281 219.894 160.361 217.158 161.177 214.974H156.329V216.534H158.969C158.105 218.91 157.025 221.574 156.161 223.398H159.785C159.521 225.606 159.137 227.502 158.561 229.038C157.985 228.102 157.481 226.974 157.097 225.606L155.801 226.134C156.353 227.958 157.073 229.422 157.913 230.574C157.145 232.086 156.161 233.238 154.961 234.03C155.273 234.246 155.873 234.798 156.113 235.158C157.217 234.366 158.177 233.262 158.969 231.822C161.393 234.246 164.633 234.822 168.281 234.822H171.905C171.953 234.39 172.217 233.694 172.457 233.31C171.569 233.334 169.025 233.334 168.377 233.334C165.017 233.334 161.897 232.806 159.617 230.406C160.529 228.294 161.105 225.558 161.417 222.15L160.481 221.934ZM187.721 223.23H192.353V225.102H187.721V223.23ZM187.721 220.134H192.353V221.886H187.721V220.134ZM193.745 226.758C192.785 227.574 191.177 228.654 189.881 229.422C189.017 228.63 188.273 227.742 187.721 226.782V226.398H194.057V223.326H196.409V221.766H194.057V218.838H187.721V216.918H196.145V215.334H187.865C187.505 214.638 186.953 213.726 186.449 213.006L184.745 213.51C185.105 214.038 185.489 214.734 185.801 215.334H176.393V222.39C176.393 225.87 176.201 230.742 174.329 234.198C174.713 234.366 175.457 234.846 175.769 235.158C177.785 231.534 178.097 226.11 178.097 222.39V216.918H185.945V218.838H179.825V220.134H185.945V221.886H178.673V223.23H185.945V225.102H179.609V226.398H185.945V229.158C183.017 230.334 179.993 231.534 178.025 232.23L178.745 233.694C180.785 232.83 183.401 231.702 185.945 230.574V233.094C185.945 233.502 185.801 233.622 185.369 233.646C184.985 233.67 183.521 233.694 182.057 233.622C182.297 234.078 182.537 234.702 182.633 235.158C184.625 235.158 185.897 235.158 186.689 234.894C187.433 234.63 187.721 234.222 187.721 233.094V229.158C189.569 231.51 192.305 233.19 195.521 234.054C195.737 233.598 196.193 232.974 196.577 232.638C194.489 232.182 192.593 231.39 191.009 230.31C192.305 229.614 193.841 228.702 195.065 227.814L193.745 226.758ZM179.297 227.622C180.521 228.366 182.057 229.47 182.801 230.19L183.833 229.086C183.041 228.39 181.481 227.334 180.305 226.638L179.297 227.622ZM216.929 217.254H209.033V215.334H216.929V217.254ZM216.929 220.494H209.033V218.55H216.929V220.494ZM218.705 213.99H207.305V221.862H218.705V213.99ZM203.537 213.318C202.481 214.998 200.345 216.99 198.449 218.214C198.761 218.574 199.193 219.246 199.385 219.654C201.497 218.238 203.825 216.006 205.241 213.966L203.537 213.318ZM203.969 218.55C202.553 221.022 200.225 223.446 198.065 225.03C198.377 225.462 198.857 226.374 199.001 226.734C199.937 226.014 200.897 225.126 201.809 224.142V235.134H203.561V222.126C204.281 221.166 204.977 220.158 205.529 219.174L203.969 218.55ZM207.353 229.806C208.433 230.862 209.729 232.326 210.305 233.286L211.673 232.326C211.049 231.39 209.729 229.974 208.625 228.99L207.353 229.806ZM220.265 227.046H216.689V225.006H219.833V223.47H205.841V225.006H214.913V227.046H205.289V228.582H214.913V233.142C214.913 233.454 214.817 233.55 214.433 233.574C214.097 233.598 212.897 233.598 211.553 233.55C211.793 234.03 212.057 234.678 212.129 235.182C213.929 235.182 215.057 235.158 215.777 234.894C216.473 234.606 216.689 234.15 216.689 233.19V228.582H220.265V227.046ZM226.097 222.246C228.113 220.086 229.937 217.278 231.161 214.23L229.265 213.702C227.873 217.35 225.449 220.662 222.593 222.726C223.049 223.062 223.793 223.734 224.129 224.094C224.753 223.566 225.401 222.99 226.001 222.342V223.998H230.609C230.057 228.03 228.737 231.822 223.097 233.718C223.481 234.054 223.985 234.774 224.225 235.23C230.249 233.022 231.833 228.726 232.481 223.998H238.985C238.697 229.95 238.361 232.302 237.761 232.902C237.497 233.142 237.233 233.214 236.729 233.214C236.153 233.214 234.713 233.19 233.153 233.046C233.489 233.55 233.705 234.294 233.729 234.822C235.217 234.918 236.705 234.942 237.497 234.87C238.337 234.822 238.841 234.63 239.369 234.03C240.185 233.118 240.497 230.382 240.833 223.11C240.857 222.87 240.881 222.246 240.881 222.246H226.097ZM235.961 214.326C237.641 217.854 240.497 221.694 242.993 223.878C243.329 223.398 243.953 222.726 244.433 222.366C241.937 220.494 239.057 216.894 237.569 213.654L235.961 214.326Z" fill="white"/>
<defs>
<filter id="filter0_d_791_1036" x="57.0088" y="56.3271" width="254.949" height="276.512" filterUnits="userSpaceOnUse" color-interpolation-filters="sRGB">
<feFlood flood-opacity="0" result="BackgroundImageFix"/>
<feColorMatrix in="SourceAlpha" type="matrix" values="0 0 0 0 0 0 0 0 0 0 0 0 0 0 0 0 0 0 127 0" result="hardAlpha"/>
<feOffset/>
<feGaussianBlur stdDeviation="3.5"/>
<feColorMatrix type="matrix" values="0 0 0 0 0.0235294 0 0 0 0 0.996078 0 0 0 0 0.647059 0 0 0 0.6 0"/>
<feBlend mode="normal" in2="BackgroundImageFix" result="effect1_dropShadow_791_1036"/>
<feBlend mode="normal" in="SourceGraphic" in2="effect1_dropShadow_791_1036" result="shape"/>
</filter>
<filter id="filter1_d_791_1036" x="290.461" y="124.768" width="41.292" height="133.938" filterUnits="userSpaceOnUse" color-interpolation-filters="sRGB">
<feFlood flood-opacity="0" result="BackgroundImageFix"/>
<feColorMatrix in="SourceAlpha" type="matrix" values="0 0 0 0 0 0 0 0 0 0 0 0 0 0 0 0 0 0 127 0" result="hardAlpha"/>
<feOffset/>
<feGaussianBlur stdDeviation="3.5"/>
<feColorMatrix type="matrix" values="0 0 0 0 0.825 0 0 0 0 1 0 0 0 0 0.937198 0 0 0 0.6 0"/>
<feBlend mode="normal" in2="BackgroundImageFix" result="effect1_dropShadow_791_1036"/>
<feBlend mode="normal" in="SourceGraphic" in2="effect1_dropShadow_791_1036" result="shape"/>
</filter>
</defs>
</svg>
