<svg width="41" height="41" viewBox="0 0 41 41" fill="none" xmlns="http://www.w3.org/2000/svg">
<path d="M20.5001 40.0837C9.68421 40.0837 0.916748 31.3162 0.916748 20.5003C0.916748 9.68445 9.68421 0.916992 20.5001 0.916992C31.316 0.916992 40.0834 9.68445 40.0834 20.5003C40.0834 31.3162 31.316 40.0837 20.5001 40.0837ZM20.5001 36.167C24.6551 36.167 28.64 34.5164 31.5781 31.5783C34.5162 28.6403 36.1667 24.6554 36.1667 20.5003C36.1667 16.3453 34.5162 12.3604 31.5781 9.42232C28.64 6.48425 24.6551 4.83366 20.5001 4.83366C16.345 4.83366 12.3601 6.48425 9.42208 9.42232C6.48401 12.3604 4.83341 16.3453 4.83341 20.5003C4.83341 24.6554 6.48401 28.6403 9.42208 31.5783C12.3601 34.5164 16.345 36.167 20.5001 36.167ZM10.7084 22.4587H28.3334V26.3753H20.5001V32.2503L10.7084 22.4587ZM20.5001 14.6253V8.75033L30.2917 18.542H12.6667V14.6253H20.5001Z" fill="#18FEFE"/>
</svg>
