<svg width="41" height="41" viewBox="0 0 41 41" fill="none" xmlns="http://www.w3.org/2000/svg">
<path d="M20.5001 0.916992C31.316 0.916992 40.0834 9.68445 40.0834 20.5003C40.0834 31.3162 31.316 40.0837 20.5001 40.0837C9.68421 40.0837 0.916748 31.3162 0.916748 20.5003C0.916748 9.68445 9.68421 0.916992 20.5001 0.916992ZM20.5001 4.83366C16.345 4.83366 12.3601 6.48425 9.42208 9.42232C6.48401 12.3604 4.83341 16.3453 4.83341 20.5003C4.83341 24.6554 6.48401 28.6403 9.42208 31.5783C12.3601 34.5164 16.345 36.167 20.5001 36.167C24.6551 36.167 28.64 34.5164 31.5781 31.5783C34.5162 28.6403 36.1667 24.6554 36.1667 20.5003C36.1667 16.3453 34.5162 12.3604 31.5781 9.42232C28.64 6.48425 24.6551 4.83366 20.5001 4.83366ZM24.4167 16.5837C24.9361 16.5837 25.4342 16.79 25.8015 17.1572C26.1688 17.5245 26.3751 18.0226 26.3751 18.542V26.3753H23.4376V34.2087H17.5626V26.3753H14.6251V18.542C14.6251 18.0226 14.8314 17.5245 15.1987 17.1572C15.5659 16.79 16.064 16.5837 16.5834 16.5837H24.4167ZM20.5001 6.79199C21.5388 6.79199 22.5351 7.20464 23.2696 7.93916C24.0041 8.67367 24.4167 9.66989 24.4167 10.7087C24.4167 11.7474 24.0041 12.7436 23.2696 13.4782C22.5351 14.2127 21.5388 14.6253 20.5001 14.6253C19.4613 14.6253 18.4651 14.2127 17.7306 13.4782C16.9961 12.7436 16.5834 11.7474 16.5834 10.7087C16.5834 9.66989 16.9961 8.67367 17.7306 7.93916C18.4651 7.20464 19.4613 6.79199 20.5001 6.79199Z" fill="#18FEFE"/>
</svg>
