<svg width="436" height="166" viewBox="0 0 436 166" fill="none" xmlns="http://www.w3.org/2000/svg">
<path d="M7.09951 15.5841L4.29028 18.4316L4.27115 15.6033L7.09951 15.5841Z" fill="#18FEFE"/>
<path d="M5.62864 7.10766L5.68604 15.5927" stroke="#18FEFE" stroke-width="2.83"/>
<path d="M7.04208 7.09927L4.19458 4.29004L4.21371 7.1184L7.04208 7.09927Z" fill="#18FEFE"/>
<path d="M7.04208 7.09927L4.19458 4.29004L7.02294 4.27091L7.04208 7.09927Z" fill="#18FEFE"/>
<path d="M7.03249 5.68433L15.5176 5.62693" stroke="#18FEFE" stroke-width="2.83"/>
<path d="M18.3356 4.1945L15.5264 7.04199L15.5072 4.21363L18.3356 4.1945Z" fill="#18FEFE"/>
<path d="M419.405 157.966L416.595 160.813L419.424 160.794L419.405 157.966Z" fill="#18FEFE"/>
<path d="M419.414 159.38L427.899 159.322" stroke="#18FEFE" stroke-width="2.83"/>
<path d="M427.889 157.91L430.736 160.719L427.908 160.738L427.889 157.91Z" fill="#18FEFE"/>
<path d="M427.89 157.909L430.737 160.718L430.718 157.889L427.89 157.909Z" fill="#18FEFE"/>
<path d="M429.247 149.412L429.304 157.897" stroke="#18FEFE" stroke-width="2.83"/>
<path d="M430.642 146.575L427.832 149.423L430.661 149.404L430.642 146.575Z" fill="#18FEFE"/>
<path d="M7.09976 158.584L4.29053 161.432L7.11889 161.413L7.09976 158.584Z" fill="#18FEFE"/>
<path d="M7.10916 159.998L15.5942 159.94" stroke="#18FEFE" stroke-width="2.83"/>
<path d="M15.5839 158.528L18.4314 161.337L15.603 161.356L15.5839 158.528Z" fill="#18FEFE"/>
<path d="M7.09951 158.584L4.29028 161.432L4.27115 158.603L7.09951 158.584Z" fill="#18FEFE"/>
<path d="M5.62864 150.108L5.68604 158.593" stroke="#18FEFE" stroke-width="2.83"/>
<path d="M7.04208 150.099L4.19458 147.29L4.21371 150.118L7.04208 150.099Z" fill="#18FEFE"/>
<path d="M427.966 16.222L430.814 19.0312L430.795 16.2029L427.966 16.222Z" fill="#18FEFE"/>
<path d="M429.324 7.72583L429.381 16.2109" stroke="#18FEFE" stroke-width="2.83"/>
<path d="M430.718 4.88883L427.909 7.73633L430.737 7.71719L430.718 4.88883Z" fill="#18FEFE"/>
<path d="M419.424 7.79458L416.576 4.98535L419.405 4.96622L419.424 7.79458Z" fill="#18FEFE"/>
<path d="M419.414 6.37964L427.899 6.32224" stroke="#18FEFE" stroke-width="2.83"/>
<path d="M430.717 4.88981L427.908 7.7373L427.889 4.90894L430.717 4.88981Z" fill="#18FEFE"/>
</svg>
