<svg width="48" height="48" viewBox="0 0 48 48" fill="none" xmlns="http://www.w3.org/2000/svg">
<path d="M24 4C35.046 4 44 12.954 44 24C44 35.046 35.046 44 24 44C12.954 44 4 35.046 4 24C4 12.954 12.954 4 24 4ZM24 8C19.7565 8 15.6869 9.68571 12.6863 12.6863C9.68571 15.6869 8 19.7565 8 24C8 28.2435 9.68571 32.3131 12.6863 35.3137C15.6869 38.3143 19.7565 40 24 40C28.2435 40 32.3131 38.3143 35.3137 35.3137C38.3143 32.3131 40 28.2435 40 24C40 19.7565 38.3143 15.6869 35.3137 12.6863C32.3131 9.68571 28.2435 8 24 8ZM28 20C28.5304 20 29.0391 20.2107 29.4142 20.5858C29.7893 20.9609 30 21.4696 30 22V30H27V38H21V30H18V22C18 21.4696 18.2107 20.9609 18.5858 20.5858C18.9609 20.2107 19.4696 20 20 20H28ZM24 10C25.0609 10 26.0783 10.4214 26.8284 11.1716C27.5786 11.9217 28 12.9391 28 14C28 15.0609 27.5786 16.0783 26.8284 16.8284C26.0783 17.5786 25.0609 18 24 18C22.9391 18 21.9217 17.5786 21.1716 16.8284C20.4214 16.0783 20 15.0609 20 14C20 12.9391 20.4214 11.9217 21.1716 11.1716C21.9217 10.4214 22.9391 10 24 10Z" fill="white"/>
</svg>
