<svg width="268" height="12" viewBox="0 0 268 12" fill="none" xmlns="http://www.w3.org/2000/svg">
<path d="M4 12H0L2 10L4 12Z" fill="#18FEFE"/>
<path d="M13.001 1L3.00098 11" stroke="#18FEFE" stroke-width="2.83"/>
<path d="M16 0H12L14 2L16 0Z" fill="#18FEFE"/>
<path d="M16 12H12L14 10L16 12Z" fill="#18FEFE"/>
<path d="M25.001 1L15.001 11" stroke="#18FEFE" stroke-width="2.83"/>
<path d="M28 0H24L26 2L28 0Z" fill="#18FEFE"/>
<path d="M28 12H24L26 10L28 12Z" fill="#18FEFE"/>
<path d="M37.001 1L27.001 11" stroke="#18FEFE" stroke-width="2.83"/>
<path d="M40 0H36L38 2L40 0Z" fill="#18FEFE"/>
<path d="M40 12H36L38 10L40 12Z" fill="#18FEFE"/>
<path d="M49.001 1L39.001 11" stroke="#18FEFE" stroke-width="2.83"/>
<path d="M52 0H48L50 2L52 0Z" fill="#18FEFE"/>
<path d="M52 12H48L50 10L52 12Z" fill="#18FEFE"/>
<path d="M61.001 1L51.001 11" stroke="#18FEFE" stroke-width="2.83"/>
<path d="M64 0H60L62 2L64 0Z" fill="#18FEFE"/>
<path d="M64 12H60L62 10L64 12Z" fill="#18FEFE"/>
<path d="M73.001 1L63.001 11" stroke="#18FEFE" stroke-width="2.83"/>
<path d="M76 0H72L74 2L76 0Z" fill="#18FEFE"/>
<path d="M76 12H72L74 10L76 12Z" fill="#18FEFE"/>
<path d="M85.001 1L75.001 11" stroke="#18FEFE" stroke-width="2.83"/>
<path d="M88 0H84L86 2L88 0Z" fill="#18FEFE"/>
<path d="M88 12H84L86 10L88 12Z" fill="#18FEFE"/>
<path d="M97.001 1L87.001 11" stroke="#18FEFE" stroke-width="2.83"/>
<path d="M100 0H96L98 2L100 0Z" fill="#18FEFE"/>
<path d="M100 12H96L98 10L100 12Z" fill="#18FEFE"/>
<path d="M109.001 1L99.001 11" stroke="#18FEFE" stroke-width="2.83"/>
<path d="M112 0H108L110 2L112 0Z" fill="#18FEFE"/>
<path d="M112 12H108L110 10L112 12Z" fill="#18FEFE"/>
<path d="M121.001 1L111.001 11" stroke="#18FEFE" stroke-width="2.83"/>
<path d="M124 0H120L122 2L124 0Z" fill="#18FEFE"/>
<path d="M124 12H120L122 10L124 12Z" fill="#18FEFE"/>
<path d="M133.001 1L123.001 11" stroke="#18FEFE" stroke-width="2.83"/>
<path d="M136 0H132L134 2L136 0Z" fill="#18FEFE"/>
<path d="M136 12H132L134 10L136 12Z" fill="#18FEFE"/>
<path d="M145.001 1L135.001 11" stroke="#18FEFE" stroke-width="2.83"/>
<path d="M148 0H144L146 2L148 0Z" fill="#18FEFE"/>
<path d="M148 12H144L146 10L148 12Z" fill="#18FEFE"/>
<path d="M157.001 1L147.001 11" stroke="#18FEFE" stroke-width="2.83"/>
<path d="M160 0H156L158 2L160 0Z" fill="#18FEFE"/>
<path d="M160 12H156L158 10L160 12Z" fill="#18FEFE"/>
<path d="M169.001 1L159.001 11" stroke="#18FEFE" stroke-width="2.83"/>
<path d="M172 0H168L170 2L172 0Z" fill="#18FEFE"/>
<path d="M172 12H168L170 10L172 12Z" fill="#18FEFE"/>
<path d="M181.001 1L171.001 11" stroke="#18FEFE" stroke-width="2.83"/>
<path d="M184 0H180L182 2L184 0Z" fill="#18FEFE"/>
<path d="M184 12H180L182 10L184 12Z" fill="#18FEFE"/>
<path d="M193.001 1L183.001 11" stroke="#18FEFE" stroke-width="2.83"/>
<path d="M196 0H192L194 2L196 0Z" fill="#18FEFE"/>
<path d="M196 12H192L194 10L196 12Z" fill="#18FEFE"/>
<path d="M205.001 1L195.001 11" stroke="#18FEFE" stroke-width="2.83"/>
<path d="M208 0H204L206 2L208 0Z" fill="#18FEFE"/>
<path d="M208 12H204L206 10L208 12Z" fill="#18FEFE"/>
<path d="M217.001 1L207.001 11" stroke="#18FEFE" stroke-width="2.83"/>
<path d="M220 0H216L218 2L220 0Z" fill="#18FEFE"/>
<path d="M220 12H216L218 10L220 12Z" fill="#18FEFE"/>
<path d="M229.001 1L219.001 11" stroke="#18FEFE" stroke-width="2.83"/>
<path d="M232 0H228L230 2L232 0Z" fill="#18FEFE"/>
<path d="M232 12H228L230 10L232 12Z" fill="#18FEFE"/>
<path d="M241.001 1L231.001 11" stroke="#18FEFE" stroke-width="2.83"/>
<path d="M244 0H240L242 2L244 0Z" fill="#18FEFE"/>
<path d="M244 12H240L242 10L244 12Z" fill="#18FEFE"/>
<path d="M253.001 1L243.001 11" stroke="#18FEFE" stroke-width="2.83"/>
<path d="M256 0H252L254 2L256 0Z" fill="#18FEFE"/>
<path d="M256 12H252L254 10L256 12Z" fill="#18FEFE"/>
<path d="M265.001 1L255.001 11" stroke="#18FEFE" stroke-width="2.83"/>
<path d="M268 0H264L266 2L268 0Z" fill="#18FEFE"/>
</svg>
