<svg width="540" height="146" viewBox="0 0 540 146" fill="none" xmlns="http://www.w3.org/2000/svg">
<path d="M4 10H0L2 8L4 10Z" fill="#18FEFE"/>
<path d="M9.00098 3L3.00098 9" stroke="#18FEFE" stroke-width="2.83"/>
<path d="M10 4L10 0L8 2L10 4Z" fill="#18FEFE"/>
<rect y="10" width="1" height="11" fill="#18FEFE"/>
<path d="M1 11V10H2L1 11Z" fill="#18FEFE"/>
<path d="M1 21V20L2 21H1Z" fill="#18FEFE"/>
<path d="M4 21H0L2 23L4 21Z" fill="#18FEFE"/>
<path d="M3 22L4 23" stroke="#18FEFE" stroke-width="2.83"/>
<path d="M6.99902 24H2.99902L4.99902 22L6.99902 24Z" fill="#18FEFE"/>
<rect x="10" width="55" height="0.9999" fill="#18FEFE"/>
<path d="M10 2V1H11L10 2Z" fill="#18FEFE"/>
<path d="M65 2V1H64L65 2Z" fill="#18FEFE"/>
<path d="M535 10H539L537 8L535 10Z" fill="#18FEFE"/>
<path d="M529.999 3L535.999 9" stroke="#18FEFE" stroke-width="2.83"/>
<path d="M529 4L529 0L531 2L529 4Z" fill="#18FEFE"/>
<rect width="1" height="11" transform="matrix(-1 0 0 1 539 10)" fill="#18FEFE"/>
<path d="M538 11V10H537L538 11Z" fill="#18FEFE"/>
<path d="M538 21V20L537 21H538Z" fill="#18FEFE"/>
<path d="M535 21H539L537 23L535 21Z" fill="#18FEFE"/>
<path d="M536 22L535 23" stroke="#18FEFE" stroke-width="2.83"/>
<path d="M532.001 24H536.001L534.001 22L532.001 24Z" fill="#18FEFE"/>
<rect width="55" height="0.9999" transform="matrix(-1 0 0 1 529 0)" fill="#18FEFE"/>
<path d="M529 2V1H528L529 2Z" fill="#18FEFE"/>
<path d="M474 2V1H475L474 2Z" fill="#18FEFE"/>
<path d="M535 136H539L537 138L535 136Z" fill="#18FEFE"/>
<path d="M529.999 143L535.999 137" stroke="#18FEFE" stroke-width="2.83"/>
<path d="M529 142L529 146L531 144L529 142Z" fill="#18FEFE"/>
<rect x="539" y="136" width="1" height="11" transform="rotate(-180 539 136)" fill="#18FEFE"/>
<path d="M538 135V136H537L538 135Z" fill="#18FEFE"/>
<path d="M538 125V126L537 125H538Z" fill="#18FEFE"/>
<path d="M535 125H539L537 123L535 125Z" fill="#18FEFE"/>
<path d="M536 124L535 123" stroke="#18FEFE" stroke-width="2.83"/>
<path d="M532.001 122H536.001L534.001 124L532.001 122Z" fill="#18FEFE"/>
<rect x="529" y="146" width="55" height="0.9999" transform="rotate(-180 529 146)" fill="#18FEFE"/>
<path d="M529 144V145H528L529 144Z" fill="#18FEFE"/>
<path d="M474 144V145H475L474 144Z" fill="#18FEFE"/>
<path d="M4 136H0L2 138L4 136Z" fill="#18FEFE"/>
<path d="M9.00098 143L3.00098 137" stroke="#18FEFE" stroke-width="2.83"/>
<path d="M10 142L10 146L8 144L10 142Z" fill="#18FEFE"/>
<rect width="1" height="11" transform="matrix(1 0 0 -1 0 136)" fill="#18FEFE"/>
<path d="M1 135V136H2L1 135Z" fill="#18FEFE"/>
<path d="M1 125V126L2 125H1Z" fill="#18FEFE"/>
<path d="M4 125H0L2 123L4 125Z" fill="#18FEFE"/>
<path d="M3 124L4 123" stroke="#18FEFE" stroke-width="2.83"/>
<path d="M6.99902 122H2.99902L4.99902 124L6.99902 122Z" fill="#18FEFE"/>
<rect width="55" height="0.9999" transform="matrix(1 0 0 -1 10 146)" fill="#18FEFE"/>
<path d="M10 144V145H11L10 144Z" fill="#18FEFE"/>
<path d="M65 144V145H64L65 144Z" fill="#18FEFE"/>
<path d="M65 146L65 144L66 145L65 146Z" fill="#18FEFE"/>
<path d="M66 145L66 143L65 144L66 145Z" fill="#18FEFE"/>
<rect width="407" height="0.9999" transform="matrix(1 0 0 -1 66 144)" fill="#18FEFE"/>
<path d="M66 144V145L67 144H66Z" fill="#18FEFE"/>
<path d="M473 144V145L472 144H473Z" fill="#18FEFE"/>
<path d="M473 143L473 145L474 144L473 143Z" fill="#18FEFE"/>
<path d="M474 144L474 146L473 145L474 144Z" fill="#18FEFE"/>
<path d="M65 0L65 2L66 1L65 0Z" fill="#18FEFE"/>
<path d="M66 1L66 3L65 2L66 1Z" fill="#18FEFE"/>
<rect x="66" y="2" width="407" height="0.9999" fill="#18FEFE"/>
<path d="M66 2V1L67 2H66Z" fill="#18FEFE"/>
<path d="M473 2V1L472 2H473Z" fill="#18FEFE"/>
<path d="M473 3L473 1L474 2L473 3Z" fill="#18FEFE"/>
<path d="M474 2L474 0L473 1L474 2Z" fill="#18FEFE"/>
<rect width="1" height="98" transform="matrix(-1 0 0 1 533 24)" fill="#18FEFE"/>
<path d="M533 25V24H534L533 25Z" fill="#18FEFE"/>
<path d="M533 122V121L534 122H533Z" fill="#18FEFE"/>
<path d="M539 28V25L536 28H539Z" fill="#18FEFE"/>
<rect width="3" height="90" transform="matrix(-1 0 0 1 539 28)" fill="#18FEFE"/>
<path d="M539 121V118H536L539 121Z" fill="#18FEFE"/>
<rect x="6" y="24" width="1" height="98" fill="#18FEFE"/>
<path d="M6 25V24H5L6 25Z" fill="#18FEFE"/>
<path d="M6 122V121L5 122H6Z" fill="#18FEFE"/>
<path d="M0 28V25L3 28H0Z" fill="#18FEFE"/>
<rect y="28" width="3" height="90" fill="#18FEFE"/>
<path d="M0 121V118H3L0 121Z" fill="#18FEFE"/>
<g opacity="0.2">
<path d="M1 17L13.5 4H62L64 6V24H5L1 20V17Z" fill="#18FEFE"/>
<path d="M539 17L526.5 4H478L476 6V24H535L539 20V17Z" fill="#18FEFE"/>
<rect x="7" y="24" width="57" height="98" fill="#18FEFE"/>
<rect x="476" y="24" width="56" height="98" fill="#18FEFE"/>
<path d="M1 129L13.5 142H62L64 140V122H5L1 126V129Z" fill="#18FEFE"/>
<path d="M539 129L526.5 142H478L476 140V122H535L539 126V129Z" fill="#18FEFE"/>
<rect x="64" y="6" width="412" height="134" fill="#18FEFE"/>
</g>
</svg>
