<svg width="454" height="106" viewBox="0 0 454 106" fill="none" xmlns="http://www.w3.org/2000/svg">
<path d="M84.0537 0H454V106H84.0537V0Z" fill="white"/>
<path d="M83.4589 0L272.495 106H0L83.4589 0Z" fill="white"/>
<path d="M126.888 43.656C125.896 42.376 123.72 40.392 122.056 38.984L120.52 40.392C122.184 41.896 124.296 43.976 125.256 45.32L126.888 43.656ZM125.512 61.864V48.232H118.44V50.504H123.208V62.12C123.208 63.528 122.312 64.488 121.704 64.84C122.12 65.32 122.728 66.312 122.952 66.856C123.432 66.248 124.264 65.544 129.608 61.416C129.352 60.968 128.936 60.072 128.776 59.432L125.512 61.864ZM132.808 60.776V58.184H142.792V60.776H132.808ZM142.792 54.056V56.52H132.808V54.056H142.792ZM145.064 52.2H130.568V67.432H132.808V62.504H142.792V64.744C142.792 65.16 142.664 65.288 142.184 65.288C141.8 65.32 140.264 65.32 138.632 65.256C138.92 65.864 139.24 66.728 139.336 67.304C141.608 67.336 143.016 67.304 143.944 66.952C144.808 66.6 145.064 65.992 145.064 64.776V52.2ZM138.952 48.552V46.312H145.672V44.584H138.952V42.568H146.632V40.744H138.952V38.248H136.616V40.744H129.256V42.568H136.616V44.584H130.024V46.312H136.616V48.552H128.296V50.376H147.56V48.552H138.952ZM170.664 51.464V58.856C170.664 61.224 171.208 61.96 173.608 61.96H176.712C178.696 61.96 179.336 60.936 179.592 56.904C178.92 56.744 177.96 56.36 177.448 55.976C177.384 59.272 177.224 59.752 176.488 59.752H173.928C173.128 59.752 173 59.624 173 58.856V51.464H179.304V49.384H170.632V44.712H177.992V42.632H170.632V38.344H168.264V42.632H164.52C164.936 41.672 165.288 40.68 165.576 39.688L163.304 39.176C162.536 41.992 161.192 44.84 159.496 46.728C160.04 46.984 161.064 47.592 161.48 47.944C162.248 47.048 162.92 45.928 163.56 44.712H168.264V49.384H159.304V51.464H165.032C164.52 55.624 163.24 58.664 158.44 60.36C158.952 60.808 159.592 61.672 159.88 62.248C165.256 60.168 166.792 56.488 167.4 51.464H170.664ZM157.928 44.456C156.936 42.92 154.728 40.776 152.84 39.304L151.016 40.584C152.904 42.12 155.048 44.392 155.976 45.928L157.928 44.456ZM157.096 50.408H150.856V52.648H154.792V62.28C153.448 62.92 151.976 64.072 150.568 65.416L152.136 67.432C153.928 65.448 155.656 63.848 156.84 63.848C157.544 63.848 158.504 64.744 159.752 65.512C161.864 66.728 164.456 67.08 168.168 67.08C171.272 67.08 176.648 66.888 179.112 66.728C179.144 66.056 179.528 64.904 179.816 64.264C176.648 64.616 171.848 64.84 168.2 64.84C164.808 64.84 162.184 64.648 160.2 63.464C158.696 62.6 157.96 61.832 157.096 61.704V50.408ZM192.744 54.024L192.424 51.848L189.064 52.904V46.824H192.84V44.616H189.064V38.248H186.76V44.616H182.568V46.824H186.76V53.608C185.064 54.12 183.496 54.6 182.248 54.952L182.856 57.256C184.04 56.872 185.352 56.456 186.76 55.976V64.52C186.76 64.968 186.6 65.096 186.184 65.096C185.832 65.128 184.552 65.128 183.208 65.064C183.496 65.736 183.816 66.696 183.912 67.336C185.96 67.336 187.176 67.272 187.944 66.888C188.776 66.504 189.064 65.864 189.064 64.52V55.24L192.744 54.024ZM203.176 56.776H209.224V54.664H203.176V51.848H200.84V54.664H194.376V56.776H200.84V60.072H192.744V62.216H200.84V67.528H203.176V62.216H211.528V60.072H203.176V56.776ZM206.696 42.088C205.544 43.752 203.976 45.224 202.152 46.472C200.488 45.224 199.08 43.752 198.024 42.088H206.696ZM208.552 39.848L208.168 39.944H193.672V42.088H195.752C196.904 44.2 198.472 46.056 200.328 47.656C197.832 49.16 195.016 50.248 192.328 50.92C192.776 51.4 193.32 52.296 193.576 52.84C196.52 52.008 199.464 50.728 202.088 49.032C204.552 50.728 207.432 52.072 210.568 52.872C210.92 52.264 211.56 51.368 212.04 50.888C209.064 50.248 206.312 49.16 203.976 47.72C206.504 45.8 208.616 43.432 209.992 40.648L208.552 39.848ZM242.888 47.304V44.936H230.216V38.248H227.752V44.936H215.176V47.304H224.84C222.504 52.712 218.568 57.896 214.344 60.488C214.888 60.936 215.656 61.8 216.04 62.376C220.648 59.24 224.776 53.544 227.24 47.304H227.752V59.112H220.328V61.48H227.752V67.432H230.216V61.48H237.64V59.112H230.216V47.304H230.664C233.064 53.544 237.192 59.304 241.928 62.28C242.312 61.64 243.144 60.776 243.752 60.264C239.336 57.768 235.304 52.712 233 47.304H242.888ZM271.72 45.992C271.112 48.2 270.12 50.6 269.384 52.104C269.928 52.36 270.856 52.84 271.336 53.096C272.488 50.92 273.896 47.56 274.696 44.456L272.936 43.528L272.52 43.656H260.776C261.256 42.056 261.704 40.392 262.088 38.696L259.528 38.248C258.568 43.304 256.776 48.264 254.312 51.4C254.92 51.656 256.136 52.328 256.584 52.68C257.864 50.888 259.016 48.584 259.976 45.992H271.72ZM254.6 44.616C253.256 43.336 250.536 41.544 248.36 40.424L246.952 42.12C249.128 43.368 251.784 45.256 253.064 46.568L254.6 44.616ZM253.064 52.904C251.016 56.328 248.328 60.264 246.472 62.568L248.616 64.2C250.632 61.384 253.032 57.704 254.888 54.44L253.064 52.904ZM265.704 47.528H263.208V49.512C263.208 54.056 262.472 60.936 252.776 65.704C253.352 66.152 254.184 67.016 254.568 67.56C260.84 64.392 263.592 60.328 264.808 56.424C266.568 61.544 269.448 65.288 274.056 67.208C274.376 66.568 275.112 65.576 275.656 65.16C270.088 63.144 267.08 58.216 265.64 51.816C265.672 51.016 265.704 50.248 265.704 49.544V47.528ZM287.24 43.976C286.056 42.6 283.592 40.456 281.672 38.952L280.2 40.52C282.088 42.088 284.488 44.328 285.64 45.768L287.24 43.976ZM285.192 61.544V48.232H278.408V50.536H282.888V62.056C282.888 63.624 281.928 64.648 281.352 65.128C281.768 65.48 282.408 66.344 282.664 66.824C283.112 66.152 283.944 65.416 289.16 61.064C288.84 60.648 288.424 59.72 288.2 59.112L285.192 61.544ZM290.792 50.216C290.792 55.88 290.44 61.416 287.432 66.056C288.104 66.344 289.16 66.984 289.672 67.432C292.776 62.408 293.128 56.328 293.128 50.216V39.176H290.792V50.216ZM297.48 63.368H299.72V40.712H297.48V63.368ZM304.104 39.048V67.016H306.44V39.048H304.104ZM311.336 59.144C311.976 58.792 312.968 58.472 320.2 56.904C320.136 56.424 320.136 55.528 320.168 54.888L314.472 56.008C316.616 53.16 318.728 49.704 320.424 46.28L318.408 45.16C317.896 46.312 317.352 47.464 316.744 48.552L313.352 48.936C315.08 46.152 316.744 42.536 317.928 39.144L315.72 38.152C314.664 42.024 312.68 46.216 312.04 47.24C311.4 48.328 310.92 49.128 310.376 49.256C310.664 49.896 311.048 50.984 311.176 51.496C311.592 51.272 312.296 51.08 315.592 50.632C314.376 52.648 313.288 54.312 312.776 54.92C311.944 56.104 311.272 56.872 310.632 57.032C310.888 57.544 311.176 58.44 311.336 58.984V59.144ZM319.848 59.848C316.36 61.096 312.872 62.376 310.568 63.144L311.144 65.448C313.736 64.392 317.032 63.016 320.232 61.672L319.848 59.848ZM324.008 57.448C323.112 59.752 321.288 62.664 319.464 64.52C319.944 64.84 320.712 65.448 321.128 65.864C323.08 63.816 325 60.712 326.216 58.056L324.008 57.448ZM324.424 53.32C324.968 52.104 325.48 50.76 326.024 49.384H329.192V53.32H324.424ZM338.088 55.496V53.32H331.464V47.176H326.824C327.144 46.184 327.496 45.16 327.816 44.136H338.728V41.96H328.424C328.744 40.808 329.032 39.624 329.32 38.504L326.952 38.056C326.728 39.368 326.44 40.68 326.088 41.96H320.52V44.136H325.48C325.192 45.224 324.84 46.248 324.52 47.176H321.032V49.384H323.752C323.496 50.088 323.304 50.6 323.144 50.92C322.472 52.52 321.96 53.672 321.384 53.832C321.64 54.408 322.024 55.496 322.152 55.976C322.408 55.688 323.464 55.496 324.968 55.496H329.192V64.648C329.192 65.064 329.032 65.192 328.584 65.224C328.136 65.256 326.632 65.256 325 65.224C325.288 65.864 325.608 66.76 325.704 67.4C327.912 67.4 329.384 67.368 330.312 66.984C331.176 66.6 331.464 65.992 331.464 64.648V55.496H338.088ZM333.768 58.312C335.176 60.616 336.872 63.752 337.672 65.576L339.688 64.552C338.824 62.792 337.064 59.72 335.656 57.48L333.768 58.312ZM348.488 62.76V57.512H365.224V62.76H348.488ZM365.224 49.992V55.24H348.488V49.992H365.224ZM365.224 42.536V47.72H348.488V42.536H365.224ZM346.152 40.232V67.272H348.488V65.096H365.224V67.272H367.688V40.232H346.152ZM401.736 40.68H387.88V42.92H401.736V40.68ZM386.184 53.48C385.576 52.648 382.856 49.192 381.896 48.04V47.208H386.024V44.968H381.896V38.248H379.528V44.968H374.696V47.208H379.016C377.992 51.176 375.912 55.72 373.896 58.12C374.312 58.696 374.952 59.656 375.24 60.328C376.84 58.312 378.376 54.984 379.528 51.56V67.432H381.896V50.792C382.952 52.36 384.264 54.344 384.776 55.368L386.184 53.48ZM388.712 54.056C387.88 57.448 386.44 60.872 384.68 63.112C385.224 63.368 386.152 64.04 386.568 64.36C388.296 61.928 389.896 58.216 390.888 54.536L388.712 54.056ZM403.432 50.504V48.264H386.504V50.504H393.32V64.392C393.32 64.808 393.192 64.904 392.712 64.936C392.296 64.968 390.824 64.968 389.16 64.904C389.448 65.608 389.8 66.632 389.896 67.336C392.136 67.336 393.608 67.304 394.504 66.856C395.432 66.472 395.688 65.768 395.688 64.424V50.504H403.432ZM397.864 54.6C399.368 57.736 400.84 61.896 401.288 64.392L403.496 63.624C402.952 61.096 401.384 57.064 399.848 53.992L397.864 54.6Z" fill="#FF3B30"/>
</svg>
