<svg width="418" height="580" viewBox="0 0 418 580" fill="none" xmlns="http://www.w3.org/2000/svg">
<rect width="418" height="580" rx="20" fill="black" fill-opacity="0.38"/>
<path d="M172.55 46.59H153.89V48.81H170.63C168.44 51.6 165.41 55.41 162.83 58.35L165.11 59.4C168.29 55.53 172.19 50.64 174.65 47.28L172.94 46.44L172.55 46.59ZM167.99 44.43C166.76 43.11 164.15 41.1 162.23 39.72L160.73 41.07C162.65 42.54 165.2 44.67 166.4 45.99L167.99 44.43ZM163.85 31.71C160.85 36.24 155.51 40.38 150.14 42.84C150.8 43.35 151.46 44.16 151.85 44.76C156.38 42.51 160.85 39.09 164.09 35.22C167.36 38.91 172.16 42.6 176.09 44.58C176.51 43.98 177.23 43.05 177.83 42.6C173.6 40.74 168.38 37.05 165.38 33.57C165.56 33.3 165.77 33 165.95 32.73L163.85 31.71ZM186.65 54.81V46.44H201.53V54.81H186.65ZM201.53 36.15V44.25H186.65V36.15H201.53ZM184.4 33.96V58.95H186.65V57H201.53V58.83H203.87V33.96H184.4ZM220.46 44.73C219.23 45.12 217.97 45.48 216.77 45.81V40.02H220.28V37.95H216.77V31.92H214.58V37.95H210.41V40.02H214.58V46.47C212.87 46.95 211.31 47.37 210.05 47.7L210.68 49.86C211.85 49.5 213.17 49.11 214.58 48.69V56.67C214.58 57.12 214.43 57.24 214.01 57.24C213.65 57.27 212.39 57.27 211.04 57.24C211.34 57.81 211.64 58.71 211.73 59.28C213.74 59.31 214.94 59.25 215.69 58.89C216.47 58.53 216.77 57.93 216.77 56.67V48.03L220.73 46.8L220.46 44.73ZM234.08 48.12V51.09H224.36V48.12H234.08ZM224.36 56.07V52.92H234.08V56.07H224.36ZM222.23 59.28H224.36V57.9H234.08V59.16H236.27V46.2H222.23V59.28ZM226.7 41.67C224.78 41.67 224.42 41.49 224.42 40.47V38.31C228.32 37.56 232.7 36.54 235.73 35.34L234.02 33.69C231.77 34.68 227.96 35.73 224.42 36.48V32.01H222.23V40.47C222.23 43.05 223.16 43.71 226.58 43.71H233.57C236.54 43.71 237.23 42.69 237.56 38.79C236.96 38.64 236.03 38.31 235.52 37.92C235.34 41.16 235.07 41.67 233.42 41.67H226.7ZM252.32 32.46C251.81 33.66 250.82 35.37 250.07 36.45L251.51 37.14C252.35 36.15 253.31 34.65 254.18 33.3L252.32 32.46ZM245.3 36.51C245 35.4 244.19 33.81 243.35 32.64L241.73 33.3C242.54 34.53 243.32 36.18 243.59 37.23L245.3 36.51ZM246.77 44.91H248.84V40.8C250.28 41.82 252.14 43.29 252.86 43.98L254.09 42.36C253.4 41.85 250.82 40.17 249.32 39.3H254.96V37.44H248.84V31.89H246.77V37.44H240.59V39.3H246.08C244.61 41.25 242.39 43.08 240.29 43.98C240.71 44.4 241.25 45.15 241.49 45.66C243.32 44.7 245.27 43.05 246.77 41.28V44.91ZM251.33 49.2C250.67 50.76 249.71 52.08 248.54 53.16C247.46 52.62 246.26 52.05 245.15 51.57C245.57 50.88 246.02 50.04 246.47 49.2H251.33ZM252.8 55.65C252.14 55.17 251.24 54.63 250.28 54.09C251.87 52.41 253.1 50.31 253.88 47.73L252.62 47.22L252.29 47.31H247.4C247.64 46.77 247.82 46.26 248.03 45.75L246.05 45.39C245.84 46.02 245.57 46.65 245.27 47.31H241.22V49.2H244.34C243.71 50.37 243.05 51.48 242.42 52.38C243.89 52.92 245.51 53.67 247.01 54.45C245.06 55.83 242.78 56.79 240.35 57.33C240.74 57.75 241.19 58.56 241.4 59.04C244.13 58.32 246.68 57.15 248.81 55.44C249.83 56.01 250.73 56.61 251.42 57.12L252.8 55.65ZM263.21 39.75C262.76 43.2 262.04 46.2 260.96 48.72C259.82 46.05 258.98 42.99 258.41 39.75H263.21ZM267.32 39.75V37.68H258.86C259.28 36 259.64 34.26 259.88 32.49L257.84 32.19C257.09 37.38 255.74 42.39 253.46 45.54C253.94 45.84 254.78 46.53 255.14 46.89C255.89 45.75 256.58 44.43 257.18 42.96C257.84 45.93 258.68 48.63 259.82 50.97C258.14 53.82 255.8 56.01 252.56 57.6C252.95 58.02 253.58 58.92 253.79 59.4C256.85 57.75 259.13 55.65 260.9 53.04C262.37 55.59 264.26 57.63 266.57 59.04C266.9 58.47 267.53 57.72 268.04 57.3C265.55 55.98 263.6 53.76 262.07 51.03C263.66 47.94 264.65 44.22 265.34 39.75H267.32Z" fill="white"/>
<circle cx="389.5" cy="30.5" r="7.5" fill="white"/>
<circle cx="28.5" cy="30.5" r="7.5" fill="white"/>
</svg>
