<svg width="728" height="580" viewBox="0 0 728 580" fill="none" xmlns="http://www.w3.org/2000/svg">
<rect width="728" height="580" rx="20" fill="black" fill-opacity="0.38"/>
<path d="M313.7 33.03L313.34 33.12H305.99V59.34H308.18V35.22H312.35C311.54 37.26 310.49 39.81 309.41 41.94C312.05 44.25 312.8 46.29 312.83 47.94C312.83 48.87 312.62 49.65 312.05 49.98C311.78 50.16 311.36 50.25 310.94 50.25C310.37 50.31 309.65 50.31 308.87 50.19C309.2 50.82 309.44 51.69 309.47 52.26C310.25 52.32 311.12 52.32 311.84 52.23C312.47 52.14 313.1 51.96 313.58 51.63C314.51 51.03 314.93 49.74 314.93 48.12C314.93 46.26 314.3 44.1 311.63 41.64C312.83 39.3 314.18 36.45 315.23 34.02L313.7 33.03ZM318.47 47.91C318.47 51.33 318.05 55.11 314.36 58.11C315.02 58.41 315.92 58.98 316.37 59.43C320.21 56.1 320.63 51.87 320.63 47.97V43.5H318.47V47.91ZM325.64 59.22H327.83V43.47H325.64V59.22ZM322.28 31.74C321.2 35.34 318.62 39.6 314.24 42.48C314.72 42.84 315.38 43.62 315.68 44.16C319.13 41.82 321.5 38.76 323.06 35.64C325.1 38.97 328.04 42 330.95 43.71C331.28 43.2 331.97 42.39 332.45 42C329.18 40.32 325.91 36.93 324.05 33.39C324.23 32.97 324.38 32.52 324.53 32.1L322.28 31.74ZM351.71 34.95H355.88V40.53C355.88 42.57 356.27 43.35 358.25 43.35H360.5C361.1 43.35 361.67 43.35 362.03 43.23C361.94 42.75 361.91 42 361.85 41.49C361.52 41.58 360.86 41.61 360.47 41.61H358.46C358.04 41.61 357.95 41.37 357.95 40.59V33H349.64V36.6C349.64 38.79 349.16 41.43 346.25 43.41C346.67 43.71 347.48 44.43 347.78 44.82C351.02 42.66 351.71 39.33 351.71 36.66V34.95ZM346.49 50.55C344.03 50.91 341.51 51.27 339.29 51.6V47.25H345.98V45.27H339.29V41.16H346.01V39.18H339.29V35.91C341.9 35.25 344.72 34.35 346.85 33.42L345.05 31.74C343.19 32.7 339.98 33.84 337.19 34.56V34.59L337.13 34.56V51.93C336.23 52.05 335.36 52.17 334.64 52.26L334.97 54.36L337.13 54V58.86H339.29V53.67C341.6 53.31 344.09 52.86 346.58 52.47L346.49 50.55ZM357.38 47.37C356.63 49.56 355.46 51.39 354.02 52.86C352.43 51.3 351.23 49.47 350.39 47.37H357.38ZM358.64 45.36L358.25 45.45H347.54V47.37H349.64L348.53 47.67C349.46 50.19 350.78 52.38 352.49 54.21C350.48 55.77 348.02 56.88 345.35 57.51C345.77 57.96 346.28 58.83 346.49 59.43C349.31 58.59 351.89 57.42 354.05 55.65C355.97 57.27 358.25 58.47 360.83 59.25C361.13 58.62 361.73 57.78 362.21 57.33C359.69 56.73 357.47 55.65 355.61 54.24C357.62 52.17 359.15 49.44 360.02 45.87L358.64 45.36ZM370.52 54.9V49.98H386.21V54.9H370.52ZM386.21 42.93V47.85H370.52V42.93H386.21ZM386.21 35.94V40.8H370.52V35.94H386.21ZM368.33 33.78V59.13H370.52V57.09H386.21V59.13H388.52V33.78H368.33ZM420.44 34.2H407.45V36.3H420.44V34.2ZM405.86 46.2C405.29 45.42 402.74 42.18 401.84 41.1V40.32H405.71V38.22H401.84V31.92H399.62V38.22H395.09V40.32H399.14C398.18 44.04 396.23 48.3 394.34 50.55C394.73 51.09 395.33 51.99 395.6 52.62C397.1 50.73 398.54 47.61 399.62 44.4V59.28H401.84V43.68C402.83 45.15 404.06 47.01 404.54 47.97L405.86 46.2ZM408.23 46.74C407.45 49.92 406.1 53.13 404.45 55.23C404.96 55.47 405.83 56.1 406.22 56.4C407.84 54.12 409.34 50.64 410.27 47.19L408.23 46.74ZM422.03 43.41V41.31H406.16V43.41H412.55V56.43C412.55 56.82 412.43 56.91 411.98 56.94C411.59 56.97 410.21 56.97 408.65 56.91C408.92 57.57 409.25 58.53 409.34 59.19C411.44 59.19 412.82 59.16 413.66 58.74C414.53 58.38 414.77 57.72 414.77 56.46V43.41H422.03ZM416.81 47.25C418.22 50.19 419.6 54.09 420.02 56.43L422.09 55.71C421.58 53.34 420.11 49.56 418.67 46.68L416.81 47.25Z" fill="white"/>
<circle cx="32.5" cy="30.5" r="7.5" fill="white"/>
<circle cx="699.5" cy="30.5" r="7.5" fill="white"/>
</svg>
