<svg width="25" height="32" viewBox="0 0 25 32" fill="none" xmlns="http://www.w3.org/2000/svg">
<path d="M21.2507 10.6668H19.7923V7.75016C19.7923 3.72516 16.5257 0.458496 12.5007 0.458496C8.47565 0.458496 5.20898 3.72516 5.20898 7.75016V10.6668H3.75065C2.14648 10.6668 0.833984 11.9793 0.833984 13.5835V28.1668C0.833984 29.771 2.14648 31.0835 3.75065 31.0835H21.2507C22.8548 31.0835 24.1673 29.771 24.1673 28.1668V13.5835C24.1673 11.9793 22.8548 10.6668 21.2507 10.6668ZM8.12565 7.75016C8.12565 5.32933 10.0798 3.37516 12.5007 3.37516C14.9215 3.37516 16.8757 5.32933 16.8757 7.75016V10.6668H8.12565V7.75016ZM19.7923 28.1668H5.20898C4.4069 28.1668 3.75065 27.5106 3.75065 26.7085V15.0418C3.75065 14.2397 4.4069 13.5835 5.20898 13.5835H19.7923C20.5944 13.5835 21.2507 14.2397 21.2507 15.0418V26.7085C21.2507 27.5106 20.5944 28.1668 19.7923 28.1668ZM12.5007 23.7918C14.1048 23.7918 15.4173 22.4793 15.4173 20.8752C15.4173 19.271 14.1048 17.9585 12.5007 17.9585C10.8965 17.9585 9.58398 19.271 9.58398 20.8752C9.58398 22.4793 10.8965 23.7918 12.5007 23.7918Z" fill="white" fill-opacity="0.38"/>
</svg>
