<svg width="44" height="37" viewBox="0 0 44 37" fill="none" xmlns="http://www.w3.org/2000/svg">
<path d="M23.7312 1L42.7832 34C42.9587 34.304 43.0512 34.6489 43.0512 35C43.0512 35.3511 42.9588 35.6959 42.7832 36C42.6077 36.304 42.3552 36.5565 42.0512 36.732C41.7472 36.9076 41.4023 37 41.0512 37H2.94721C2.59615 37 2.25126 36.9076 1.94723 36.732C1.6432 36.5565 1.39073 36.304 1.2152 36C1.03967 35.6959 0.947263 35.3511 0.947266 35C0.947268 34.6489 1.03968 34.304 1.21521 34L20.2672 1C20.4428 0.695985 20.6952 0.443531 20.9993 0.268011C21.3033 0.0924908 21.6482 8.7738e-05 21.9992 8.7738e-05C22.3503 8.7738e-05 22.6951 0.0924908 22.9992 0.268011C23.3032 0.443531 23.5557 0.695985 23.7312 1ZM6.41121 33H37.5872L21.9992 6L6.41121 33ZM19.9992 27H23.9992V31H19.9992V27ZM19.9992 13H23.9992V23H19.9992V13Z" fill="#FF3B30"/>
</svg>
