<svg width="40" height="40" viewBox="0 0 40 40" fill="none" xmlns="http://www.w3.org/2000/svg">
<path d="M6.746 5.02002C10.3994 1.77878 15.1161 -0.00767094 20 2.47604e-05C31.046 2.47604e-05 40 8.95402 40 20C40.0065 24.0878 38.7545 28.0785 36.414 31.43L31 20H36C36.0001 16.8187 35.0518 13.7096 33.2762 11.0699C31.5007 8.4302 28.9786 6.37969 26.0321 5.18034C23.0855 3.98098 19.8483 3.68723 16.734 4.33661C13.6197 4.98599 10.7697 6.54902 8.548 8.82602L6.748 5.02202L6.746 5.02002ZM33.254 34.98C29.6006 38.2213 24.8839 40.0077 20 40C8.954 40 0 31.046 0 20C0 15.75 1.326 11.81 3.586 8.57002L9 20H4C3.99994 23.1813 4.94824 26.2904 6.72376 28.9301C8.49928 31.5698 11.0214 33.6203 13.9679 34.8197C16.9145 36.0191 20.1517 36.3128 23.266 35.6634C26.3803 35.0141 29.2303 33.451 31.452 31.174L33.252 34.978L33.254 34.98ZM22.828 25.656L17.172 20L11.514 25.656L8.686 22.828L17.172 14.344L22.828 20L28.486 14.344L31.314 17.172L22.828 25.656Z" fill="white"/>
</svg>
