<svg width="30" height="43" viewBox="0 0 30 43" fill="none" xmlns="http://www.w3.org/2000/svg">
<path d="M15.0002 43C18.9784 43 22.7937 41.4196 25.6068 38.6066C28.4198 35.7936 30.0002 31.9782 30.0002 28C30.0002 26.268 29.5402 24.606 29.0002 23.06C25.6662 26.354 23.1342 28 21.4002 28C29.3902 14 25.0002 8 13.0002 0C14.0002 10 7.40819 14.548 4.72419 17.074C2.53484 19.1334 1.01466 21.803 0.360753 24.7367C-0.293155 27.6704 -0.0506306 30.7328 1.05688 33.5271C2.16439 36.3213 4.0858 38.7183 6.572 40.4074C9.05819 42.0965 11.9945 42.9997 15.0002 43V43ZM16.4202 7.47C22.9022 12.97 22.9342 17.244 17.9262 26.018C16.4042 28.684 18.3302 32 21.4002 32C22.7762 32 24.1682 31.6 25.6382 30.81C25.2025 32.456 24.3906 33.9783 23.2665 35.2572C22.1424 36.536 20.7368 37.5365 19.1603 38.1797C17.5839 38.823 15.8796 39.0915 14.1817 38.9642C12.4838 38.8368 10.8387 38.3171 9.3758 37.4458C7.91293 36.5746 6.67229 35.3756 5.75156 33.9434C4.83082 32.5112 4.25513 30.8847 4.06982 29.1922C3.88451 27.4996 4.09464 25.7872 4.68366 24.1897C5.27267 22.5921 6.2245 21.1531 7.46419 19.986C7.71619 19.75 8.99419 18.616 9.05019 18.566C9.89819 17.806 10.5962 17.132 11.2862 16.394C13.7462 13.758 15.5142 10.834 16.4182 7.47H16.4202Z" fill="white"/>
</svg>
