<svg width="36" height="36" viewBox="0 0 36 36" fill="none" xmlns="http://www.w3.org/2000/svg">
<path d="M6.986 32H29.014L27.68 26H8.32L6.986 32ZM33.112 32H36V36H0V32H2.888L9.652 1.566C9.75073 1.12187 9.99793 0.724682 10.3528 0.439979C10.7077 0.155276 11.149 7.80756e-05 11.604 0H24.396C24.851 7.80756e-05 25.2923 0.155276 25.6472 0.439979C26.0021 0.724682 26.2493 1.12187 26.348 1.566L33.112 32ZM9.208 22H26.792L25.012 14H10.988L9.21 22H9.208ZM11.876 10H24.124L22.792 4H13.208L11.876 10Z" fill="white"/>
</svg>
