<svg width="33" height="44" viewBox="0 0 33 44" fill="none" xmlns="http://www.w3.org/2000/svg">
<path d="M21.9798 8.95996C24.1798 8.95996 25.9798 7.15996 25.9798 4.95996C25.9798 2.75996 24.1798 0.959961 21.9798 0.959961C19.7798 0.959961 17.9798 2.75996 17.9798 4.95996C17.9798 7.15996 19.7798 8.95996 21.9798 8.95996ZM14.7798 36.76L16.7798 27.96L20.9798 31.96V43.96H24.9798V28.96L20.7798 24.96L21.9798 18.96C24.5798 21.96 28.5798 23.96 32.9798 23.96V19.96C29.1798 19.96 25.9798 17.96 24.3798 15.16L22.3798 11.96C21.5798 10.76 20.3798 9.95996 18.9798 9.95996C18.3798 9.95996 17.9798 10.16 17.3798 10.16L6.97978 14.56V23.96H10.9798V17.16L14.5798 15.76L11.3798 31.96L1.57978 29.96L0.779785 33.96L14.7798 36.76Z" fill="white"/>
</svg>
