<svg width="42" height="39" viewBox="0 0 42 39" fill="none" xmlns="http://www.w3.org/2000/svg">
<path d="M21.0001 39.0001C18.6363 39.0001 16.2957 38.5346 14.1118 37.63C11.928 36.7254 9.94367 35.3995 8.27222 33.7281C6.60076 32.0566 5.27489 30.0723 4.37031 27.8884C3.46572 25.7046 3.00014 23.3639 3.00014 21.0001C3.00014 18.6363 3.46572 16.2957 4.37031 14.1118C5.27489 11.928 6.60076 9.94367 8.27222 8.27222C9.94367 6.60076 11.928 5.27489 14.1118 4.37031C16.2957 3.46572 18.6363 3.00014 21.0001 3.00014C25.774 3.00014 30.3524 4.89656 33.7281 8.27222C37.1037 11.6479 39.0001 16.2262 39.0001 21.0001C39.0001 25.774 37.1037 30.3524 33.7281 33.7281C30.3524 37.1037 25.774 39.0001 21.0001 39.0001V39.0001ZM21.0001 35.0001C22.8386 35.0001 24.6592 34.638 26.3577 33.9345C28.0563 33.2309 29.5996 32.1997 30.8996 30.8996C32.1997 29.5996 33.2309 28.0563 33.9345 26.3577C34.638 24.6592 35.0001 22.8386 35.0001 21.0001C35.0001 19.1616 34.638 17.3411 33.9345 15.6426C33.2309 13.944 32.1997 12.4007 30.8996 11.1006C29.5996 9.80063 28.0563 8.76939 26.3577 8.06583C24.6592 7.36226 22.8386 7.00014 21.0001 7.00014C17.2871 7.00014 13.7262 8.47514 11.1006 11.1006C8.47514 13.7262 7.00014 17.2871 7.00014 21.0001C7.00014 24.7132 8.47514 28.2741 11.1006 30.8996C13.7262 33.5251 17.2871 35.0001 21.0001 35.0001V35.0001ZM23.0001 21.0001H29.0001V25.0001H19.0001V11.0001H23.0001V21.0001ZM0.494141 7.56414L7.56414 0.494141L10.3941 3.32214L3.32014 10.3941L0.494141 7.56414ZM34.4341 0.494141L41.5061 7.56414L38.6781 10.3941L31.6061 3.32214L34.4361 0.494141H34.4341Z" fill="white"/>
</svg>
