<svg width="48" height="48" viewBox="0 0 48 48" fill="none" xmlns="http://www.w3.org/2000/svg">
<path d="M10.746 9.02002C14.3994 5.77878 19.1161 3.99233 24 4.00002C35.046 4.00002 44 12.954 44 24C44.0065 28.0878 42.7545 32.0785 40.414 35.43L35 24H40C40.0001 20.8187 39.0518 17.7096 37.2762 15.0699C35.5007 12.4302 32.9786 10.3797 30.0321 9.18034C27.0855 7.98098 23.8483 7.68723 20.734 8.33661C17.6197 8.98599 14.7697 10.549 12.548 12.826L10.748 9.02202L10.746 9.02002ZM37.254 38.98C33.6006 42.2213 28.8839 44.0077 24 44C12.954 44 4 35.046 4 24C4 19.75 5.326 15.81 7.586 12.57L13 24H8C7.99994 27.1813 8.94824 30.2904 10.7238 32.9301C12.4993 35.5698 15.0214 37.6203 17.9679 38.8197C20.9145 40.0191 24.1517 40.3128 27.266 39.6634C30.3803 39.0141 33.2303 37.451 35.452 35.174L37.252 38.978L37.254 38.98ZM26.828 29.656L21.172 24L15.514 29.656L12.686 26.828L21.172 18.344L26.828 24L32.486 18.344L35.314 21.172L26.828 29.656Z" fill="white"/>
</svg>
